<?xml version="1.0" encoding="UTF-8" standalone="no"?>
<svg
   xmlns:dc="http://purl.org/dc/elements/1.1/"
   xmlns:cc="http://creativecommons.org/ns#"
   xmlns:rdf="http://www.w3.org/1999/02/22-rdf-syntax-ns#"
   xmlns:svg="http://www.w3.org/2000/svg"
   xmlns="http://www.w3.org/2000/svg"
   xmlns:sodipodi="http://sodipodi.sourceforge.net/DTD/sodipodi-0.dtd"
   xmlns:inkscape="http://www.inkscape.org/namespaces/inkscape"
   width="97.902023mm"
   height="78.810974mm"
   viewBox="0 0 97.902023 78.810974"
   version="1.1"
   id="svg8"
   inkscape:version="1.0.1 (3bc2e813f5, 2020-09-07)"
   sodipodi:docname="class_coockies.svg">
  <defs
     id="defs2" />
  <sodipodi:namedview
     id="base"
     pagecolor="#ffffff"
     bordercolor="#666666"
     borderopacity="1.0"
     inkscape:pageopacity="0.0"
     inkscape:pageshadow="2"
     inkscape:zoom="1.4"
     inkscape:cx="49.976605"
     inkscape:cy="219.88253"
     inkscape:document-units="mm"
     inkscape:current-layer="layer1"
     inkscape:document-rotation="0"
     showgrid="false"
     inkscape:snap-page="true"
     inkscape:window-width="1920"
     inkscape:window-height="1017"
     inkscape:window-x="-8"
     inkscape:window-y="-8"
     inkscape:window-maximized="1" />
  <metadata
     id="metadata5">
    <rdf:RDF>
      <cc:Work
         rdf:about="">
        <dc:format>image/svg+xml</dc:format>
        <dc:type
           rdf:resource="http://purl.org/dc/dcmitype/StillImage" />
        <dc:title></dc:title>
      </cc:Work>
    </rdf:RDF>
  </metadata>
  <g
     inkscape:label="Capa 1"
     inkscape:groupmode="layer"
     id="layer1"
     transform="translate(-42.957264,-7.1627804)">
    <rect
       style="fill:#ffffff;stroke:none;stroke-width:0.264999"
       id="rect1205"
       width="97.902023"
       height="78.810974"
       x="42.957264"
       y="7.1627803" />
    <g
       id="g974"
       transform="translate(-15.497024,6.331101)">
      <path
         id="path968"
         style="fill:#e6e6e6;stroke:#000000;stroke-width:0.622341"
         inkscape:transform-center-x="12.513981"
         inkscape:transform-center-y="-1.1233164e-06"
         d="m 279.33789,137.82422 a 33.681135,12.919561 0 0 0 -20.96094,2.83203 33.681135,12.919561 0 0 0 -5,0.36133 33.681135,12.919561 0 0 0 -24.75781,11.05273 33.681135,12.919561 0 0 0 -2.86719,1.61133 33.681135,12.919561 0 0 0 2.86719,14.5293 33.681135,12.919561 0 0 1 24.75781,-11.05274 33.681135,12.919561 0 0 1 5,-0.35937 33.681135,12.919561 0 0 1 20.96094,-2.83203 33.681135,12.919561 0 0 1 16.91602,1.73047 33.681135,12.919561 0 0 1 4.19921,1.10156 33.681135,12.919561 0 0 1 28.81446,9.49609 33.681135,12.919561 0 0 1 0.9414,1.91602 33.681135,12.919561 0 0 0 2.86719,-1.61133 33.681135,12.919561 0 0 0 -2.86719,-14.5293 33.681135,12.919561 0 0 0 -0.9414,-1.91797 33.681135,12.919561 0 0 0 -28.81446,-9.49609 33.681135,12.919561 0 0 0 -4.19921,-1.09961 33.681135,12.919561 0 0 0 -16.91602,-1.73242 z"
         transform="scale(0.26458333)" />
      <path
         id="path835-4"
         style="fill:#b3b3b3;stroke:#000000;stroke-width:0.164661"
         inkscape:transform-center-x="12.513981"
         inkscape:transform-center-y="-1.1233164e-06"
         d="m 89.320815,46.638527 c 0.001,0.588384 -0.39242,1.179353 -1.19374,1.711804 -0.22462,0.149262 -0.47835,0.291795 -0.75902,0.426378 -0.40538,1.399096 -3.00533,2.559797 -6.55013,2.924193 -0.43379,0.04455 -0.87573,0.07646 -1.32206,0.09546 -2.86586,0.879472 -6.84427,0.99504 -10.02273,0.291147 -0.38913,-0.08616 -0.76071,-0.183488 -1.11156,-0.291147 -3.647424,-0.155501 -6.673358,-1.1528 -7.623333,-2.51253 -0.11617,-0.166458 -0.199357,-0.336048 -0.248857,-0.507318 -1.297477,-0.622131 -1.957139,-1.380935 -1.952739,-2.143445 l 4.8e-4,-4.299801 c -0.02155,0.772269 0.638293,1.542469 1.95225,2.172502 0.0495,0.17127 0.132687,0.34086 0.248857,0.507318 0.949975,1.35973 3.975909,2.357029 7.623342,2.51253 0.35085,0.107659 0.72243,0.204985 1.11156,0.291147 3.17845,0.703893 7.15687,0.588325 10.02273,-0.291147 0.44633,-0.019 0.88827,-0.05091 1.32206,-0.09546 3.5448,-0.364396 6.14475,-1.525097 6.55013,-2.924193 0.28067,-0.134583 0.5344,-0.277116 0.75902,-0.426378 0.81145,-0.53918 1.19349,-1.73411 1.19349,-1.73411 z"
         sodipodi:nodetypes="ccccccccccccccccccccc" />
    </g>
    <path
       id="path968-7"
       style="fill:#de8787;stroke:#000000;stroke-width:0.164661"
       inkscape:transform-center-x="12.365222"
       inkscape:transform-center-y="-1.0273533"
       d="m 119.15707,44.091084 c -2.00612,-0.20332 -3.97798,-0.139509 -5.59337,0.181007 -0.44625,-0.02652 -0.88944,-0.03974 -1.32578,-0.03953 -3.56376,0.0017 -6.26855,0.891844 -6.81411,2.242536 -0.29276,0.105326 -0.55954,0.221294 -0.79806,0.346913 -1.94927,1.026038 -1.80501,2.574623 0.36345,3.901456 -0.41167,1.970921 2.92109,6.084348 6.48485,6.082655 0.43636,-3.2e-5 0.87954,0.01336 1.32573,0.04005 1.6154,-0.320517 3.58725,-0.384327 5.59337,-0.181007 1.56302,0.158492 3.08298,0.472785 4.40587,0.910971 0.37817,0.125408 0.73773,0.260128 1.07561,0.403012 3.61283,0.525835 4.82951,-0.858503 7.41282,-3.3118 0.14713,-0.139722 0.40922,-1.383695 0.44117,-1.208385 0.29276,-0.105326 0.55954,-0.221295 0.79806,-0.346914 1.94927,-1.026037 1.80501,-2.574622 -0.36345,-3.901455 -0.0318,-0.175469 -0.0974,-0.352706 -0.19614,-0.530177 -0.80674,-1.449408 -3.7157,-2.749509 -7.32854,-3.275344 -0.33794,-0.142713 -0.69752,-0.277261 -1.07567,-0.402499 -1.32272,-0.438353 -2.84268,-0.752805 -4.40581,-0.911486 z"
       sodipodi:nodetypes="ccsccccccccsccccccc" />
    <path
       id="path835-4-6"
       style="fill:#a02c2c;stroke:#000000;stroke-width:0.164661"
       inkscape:transform-center-x="12.152697"
       inkscape:transform-center-y="-1.9972842"
       d="m 133.45445,55.77936 c -0.0589,0.585431 -0.51041,1.133293 -1.36175,1.581429 -0.23865,0.125627 -0.50556,0.241598 -0.79847,0.346918 -0.54567,1.350576 -3.25024,2.240652 -6.81372,2.2424 -0.43607,1.71e-4 -0.87897,-0.01306 -1.32491,-0.03958 -2.94049,0.583245 -6.91,0.293328 -10.00032,-0.730384 -0.37835,-0.125315 -0.73809,-0.259953 -1.07616,-0.40276 -3.61266,-0.525894 -6.52139,-1.825966 -7.32805,-3.275316 -0.0986,-0.177416 -0.16412,-0.354591 -0.19594,-0.53001 -1.22742,-0.750946 -1.80643,-1.572944 -1.72446,-2.331047 l 0.43807,-4.277427 c -0.10003,0.766066 0.47801,1.599419 1.72102,2.359903 0.0318,0.175419 0.0973,0.352594 0.19594,0.530011 0.80666,1.449349 3.71539,2.749421 7.32805,3.275317 0.33808,0.142806 0.69782,0.277442 1.07616,0.402759 3.09031,1.023711 7.05984,1.31363 10.00032,0.730384 0.44595,0.02652 0.88884,0.03975 1.32491,0.03958 3.56348,-0.0017 6.26806,-0.891824 6.81372,-2.2424 0.29291,-0.10532 0.55983,-0.221291 0.79847,-0.346918 0.86211,-0.453799 1.36378,-1.603644 1.36378,-1.603644 z"
       sodipodi:nodetypes="ccccccccccccccccccccc" />
    <ellipse
       style="fill:#ff0000;stroke:none;stroke-width:0.22069"
       id="path1000"
       cx="122.97868"
       cy="36.964649"
       rx="5.2916665"
       ry="2.0316219"
       transform="rotate(5.8411398)" />
    <ellipse
       style="fill:#ff0000;stroke:none;stroke-width:0.198694"
       id="path1000-3"
       cx="122.21863"
       cy="35.725731"
       rx="4.2894058"
       ry="2.0316219"
       transform="rotate(5.8411398)" />
    <ellipse
       style="fill:#ff0000;stroke:none;stroke-width:0.150789"
       id="path1000-3-7"
       cx="125.48683"
       cy="35.465599"
       rx="2.4703953"
       ry="2.0316219"
       transform="rotate(5.8411398)" />
    <ellipse
       style="fill:#ff0000;stroke:none;stroke-width:0.150789"
       id="path1000-3-7-2"
       cx="122.77011"
       cy="34.426167"
       rx="2.4703953"
       ry="2.0316219"
       transform="rotate(5.8411398)" />
    <path
       id="path968-7-1"
       style="fill:#ff9955;stroke:#000000;stroke-width:0.164661"
       inkscape:transform-center-x="12.539"
       inkscape:transform-center-y="0.74961312"
       d="m 124.89589,20.79066 c -2.01402,0.09801 -3.95433,0.455059 -5.50389,1.012806 -0.44522,0.0403 -0.88542,0.09329 -1.31686,0.158549 -3.52368,0.532934 -6.06555,1.816349 -6.40366,3.233277 -0.27379,0.147791 -0.5203,0.302234 -0.73743,0.462006 -1.77454,1.305157 -1.40104,2.814933 0.94098,3.803682 -0.11325,2.010268 3.79547,5.580907 7.31916,5.047971 0.43148,-0.06508 0.8717,-0.117904 1.31688,-0.15803 1.54957,-0.557746 3.48987,-0.914794 5.50389,-1.012805 1.56918,-0.07628 3.11901,0.0079 4.49244,0.243997 0.39264,0.06763 0.76826,0.147246 1.12367,0.238164 3.65085,-0.01862 4.64757,-1.568861 6.8363,-4.379847 0.12465,-0.160094 0.19837,-1.429237 0.25609,-1.260649 0.27379,-0.147791 0.5203,-0.302234 0.73744,-0.462007 1.77452,-1.305156 1.40104,-2.814932 -0.941,-3.803681 -0.0576,-0.168767 -0.14892,-0.33424 -0.27297,-0.495013 -1.0138,-1.312949 -4.08407,-2.164875 -7.73494,-2.146257 -0.35543,-0.09074 -0.73105,-0.170183 -1.12364,-0.237649 -1.37329,-0.236272 -2.92315,-0.320626 -4.49246,-0.244514 z"
       sodipodi:nodetypes="ccsccccccccsccccccc" />
    <path
       id="path835-4-6-8"
       style="fill:#ff6600;stroke:#000000;stroke-width:0.164661"
       inkscape:transform-center-x="12.639478"
       inkscape:transform-center-y="0.24895636"
       d="m 140.77535,30.217046 c 0.029,0.587667 -0.33576,1.196717 -1.11079,1.766759 -0.21725,0.159799 -0.4639,0.314264 -0.73783,0.462072 -0.33823,1.416828 -2.8799,2.700138 -6.4033,3.233085 -0.43118,0.06518 -0.87109,0.118115 -1.31601,0.158368 -2.82068,1.015075 -6.78906,1.320145 -9.99746,0.768556 -0.3928,-0.06751 -0.76859,-0.14702 -1.12418,-0.237833 -3.65068,0.01853 -6.72071,-0.833401 -7.73442,-2.146304 -0.12397,-0.160732 -0.21515,-0.326163 -0.27276,-0.494879 -1.32565,-0.55958 -2.02073,-1.286078 -2.05268,-2.047931 l -0.20447,-4.294937 c 0.0152,0.772421 0.71108,1.510292 2.05358,2.076978 0.0576,0.168716 0.14878,0.334148 0.27275,0.49488 1.01371,1.312903 4.08374,2.164836 7.73444,2.146303 0.35558,0.09081 0.73138,0.170317 1.12417,0.237833 3.20839,0.55159 7.17678,0.24652 9.99746,-0.768555 0.44492,-0.04025 0.88483,-0.09319 1.31601,-0.158369 3.5234,-0.532946 6.06507,-1.816256 6.4033,-3.233085 0.27394,-0.147808 0.52058,-0.302273 0.73783,-0.462072 0.78484,-0.577246 1.10948,-1.789027 1.10948,-1.789027 z"
       sodipodi:nodetypes="ccccccccccccccccccccc" />
    <ellipse
       style="fill:#803300;stroke:none;stroke-width:0.140949"
       id="path1000-6"
       cx="121.70019"
       cy="-31.891634"
       rx="2.1605353"
       ry="2.0296934"
       transform="matrix(0.90801407,0.41893968,-0.50546308,0.86284823,0,0)" />
    <ellipse
       style="fill:#803300;stroke:none;stroke-width:0.14616"
       id="path1000-3-4"
       cx="-128.75671"
       cy="0.76237816"
       rx="2.3229361"
       ry="2.0299864"
       transform="matrix(-0.97242405,-0.2332198,0.29337197,-0.95599837,0,0)" />
    <ellipse
       style="fill:#803300;stroke:none;stroke-width:0.127944"
       id="path1000-3-7-4"
       cx="133.61615"
       cy="-25.976036"
       rx="2.0873537"
       ry="1.7310642"
       transform="matrix(0.93209485,0.36221428,-0.35515902,0.9348059,0,0)" />
    <ellipse
       style="fill:#803300;stroke:none;stroke-width:0.127479"
       id="path1000-3-7-2-7"
       cx="114.10296"
       cy="32.233803"
       rx="1.9981923"
       ry="1.7951832"
       transform="matrix(0.99864286,-0.05208111,0.04362284,0.99904807,0,0)" />
    <ellipse
       style="fill:#803300;stroke:none;stroke-width:0.122065"
       id="path1000-3-7-2-7-6"
       cx="117.74213"
       cy="35.386868"
       rx="1.8566909"
       ry="1.771385"
       transform="matrix(0.99846905,-0.05531324,0.04107111,0.99915623,0,0)" />
    <ellipse
       style="fill:#803300;stroke:none;stroke-width:0.114277"
       id="path1000-3-7-4-8"
       cx="132.97621"
       cy="-18.64201"
       rx="1.9045026"
       ry="1.5135813"
       transform="matrix(0.93879219,0.344484,-0.3732718,0.92772203,0,0)" />
    <ellipse
       style="fill:#803300;stroke:none;stroke-width:0.122065"
       id="path1000-3-7-2-7-6-5"
       cx="120.49826"
       cy="30.503387"
       rx="1.8566909"
       ry="1.771385"
       transform="matrix(0.99846905,-0.05531324,0.04107111,0.99915623,0,0)" />
    <path
       id="path968-7-0"
       style="fill:#afdde9;stroke:#000000;stroke-width:0.164661"
       inkscape:transform-center-x="12.374262"
       inkscape:transform-center-y="3.2380607"
       d="m 120.85706,68.556829 c -1.96335,0.459475 -3.80751,1.160458 -5.23113,1.988408 -0.43066,0.1199 -0.8541,0.251384 -1.2667,0.393345 -3.36989,1.159431 -5.63875,2.880041 -5.71589,4.334705 -0.24266,0.194727 -0.45729,0.391077 -0.64206,0.587374 -1.51018,1.603674 -0.87063,3.021383 1.61127,3.571733 0.25099,1.99775 4.73936,4.805259 8.10924,3.645835 0.41268,-0.141799 0.83617,-0.273117 1.26683,-0.392837 1.42363,-0.827954 3.26779,-1.528933 5.23113,-1.988407 1.52973,-0.357913 3.06934,-0.554486 4.46283,-0.569862 0.3984,-0.0043 0.78222,0.0063 1.1482,0.0317 3.58768,-0.676455 4.2886,-2.380981 5.93472,-5.54048 0.0938,-0.179946 -0.0625,-1.441584 0.0247,-1.286167 0.24265,-0.194723 0.45729,-0.391078 0.64206,-0.587375 1.51018,-1.603672 0.87062,-3.021378 -1.61127,-3.57173 -0.0871,-0.155619 -0.20671,-0.301929 -0.35776,-0.43769 -1.23386,-1.108684 -4.40741,-1.393167 -7.9951,-0.716708 -0.36598,-0.02518 -0.74976,-0.0356 -1.14809,-0.03119 -1.39338,0.01516 -2.93305,0.211586 -4.46294,0.569355 z"
       sodipodi:nodetypes="ccsccccccccsccccccc" />
    <path
       id="path835-4-6-1"
       style="fill:#164450;stroke:#000000;stroke-width:0.164661"
       inkscape:transform-center-x="12.83988"
       inkscape:transform-center-y="1.5479854"
       d="m 138.17623,74.965995 c 0.13449,0.572809 -0.11453,1.237641 -0.77408,1.938054 -0.1849,0.19635 -0.39965,0.392746 -0.64245,0.587512 -0.0773,1.454596 -2.34597,3.17507 -5.71557,4.334455 -0.41236,0.141836 -0.83553,0.273216 -1.2659,0.393015 -2.59148,1.506936 -6.43985,2.522393 -9.69512,2.558223 -0.39854,0.0044 -0.7825,-0.0061 -1.14863,-0.03128 -3.58754,0.676345 -6.76085,0.391809 -7.99463,-0.716842 -0.15092,-0.135748 -0.27042,-0.282034 -0.3575,-0.437602 -1.40482,-0.311433 -2.21948,-0.900725 -2.38825,-1.644336 l -0.97537,-4.187711 c 0.15428,0.757008 0.9717,1.357357 2.39436,1.672746 0.0871,0.155568 0.20658,0.301852 0.3575,0.437602 1.23378,1.108651 4.40709,1.393185 7.99463,0.716842 0.36614,0.02522 0.75011,0.03568 1.14864,0.03128 3.25526,-0.03583 7.10364,-1.05129 9.69512,-2.558223 0.43037,-0.119803 0.85353,-0.25118 1.26589,-0.393015 3.36962,-1.15934 5.6383,-2.879867 5.71557,-4.334456 0.24281,-0.194769 0.45757,-0.391168 0.64244,-0.587508 0.66791,-0.709271 0.7688,-1.95973 0.7688,-1.95973 z"
       sodipodi:nodetypes="ccccccccccccccccccccc" />
    <ellipse
       style="fill:#008033;stroke:none;stroke-width:0.383048"
       id="path1000-67"
       cx="100.71811"
       cy="98.966621"
       rx="9.4145918"
       ry="3.440136"
       transform="matrix(0.97653565,-0.21535581,0.23910046,0.97099483,0,0)" />
    <ellipse
       style="fill:#008033;stroke:none;stroke-width:0.34487"
       id="path1000-3-5"
       cx="99.365883"
       cy="96.868759"
       rx="7.6314344"
       ry="3.440136"
       transform="matrix(0.97653565,-0.21535581,0.23910046,0.97099483,0,0)" />
    <ellipse
       style="fill:#008033;stroke:none;stroke-width:0.261722"
       id="path1000-3-7-6"
       cx="105.18046"
       cy="96.428291"
       rx="4.3951683"
       ry="3.440136"
       transform="matrix(0.97653565,-0.21535581,0.23910046,0.97099483,0,0)" />
    <ellipse
       style="fill:#ff0066;stroke:none;stroke-width:0.261722"
       id="path1000-3-7-2-0"
       cx="100.34705"
       cy="94.668236"
       rx="4.3951683"
       ry="3.440136"
       transform="matrix(0.97653565,-0.21535581,0.23910046,0.97099483,0,0)" />
    <text
       xml:space="preserve"
       style="font-size:4.9389px;line-height:1.25;font-family:sans-serif;text-align:center;text-anchor:middle;stroke-width:0.264583"
       x="59.121037"
       y="31.003267"
       id="text1154"><tspan
         sodipodi:role="line"
         id="tspan1152"
         x="59.121037"
         y="31.003267"
         style="text-align:center;text-anchor:middle;stroke-width:0.264583">Clase</tspan><tspan
         sodipodi:role="line"
         x="59.121037"
         y="37.176891"
         style="text-align:center;text-anchor:middle;stroke-width:0.264583"
         id="tspan1156">&quot;El molde&quot;</tspan></text>
    <text
       xml:space="preserve"
       style="font-size:4.9389px;line-height:1.25;font-family:sans-serif;text-align:center;text-anchor:middle;stroke-width:0.264583"
       x="124.68124"
       y="10.915187"
       id="text1154-2"><tspan
         sodipodi:role="line"
         id="tspan1152-4"
         x="124.68124"
         y="10.915187"
         style="text-align:center;text-anchor:middle;stroke-width:0.264583">Objetos</tspan><tspan
         sodipodi:role="line"
         x="124.68124"
         y="17.088812"
         style="text-align:center;text-anchor:middle;stroke-width:0.264583"
         id="tspan1156-5">&quot;Instancias&quot;</tspan></text>
    <path
       style="fill:#53536c;stroke:none;stroke-width:0.264999"
       id="path1193"
       d="m 75.755888,43.361908 c 0.147042,-0.123491 0.309232,-0.230923 0.441129,-0.370474 0.778965,-0.824175 1.327161,-1.850676 1.874221,-2.832124 1.574485,-2.824676 -0.224155,0.314232 1.468041,-2.614271 1.027107,-1.711788 2.169678,-3.369297 3.635531,-4.739103 0.914847,-0.854903 1.215453,-1.009296 2.235367,-1.716963 2.218478,-1.399842 4.730228,-2.17704 7.250247,-2.826422 1.935533,-0.460611 3.924268,-0.583618 5.902103,-0.722085 0.75666,-0.02476 0.483425,-0.128546 0.873566,0.07552 1.287027,0.35972 1.795737,-1.460407 0.508717,-1.820124 v 0 c -1.005488,-0.22063 -0.500541,-0.17561 -1.514334,-0.140662 -2.09277,0.146652 -4.196199,0.28335 -6.242757,0.77754 -2.737556,0.708875 -5.459478,1.568077 -7.859712,3.106857 -1.154795,0.811302 -1.476587,0.975937 -2.511669,1.952487 -1.571434,1.482572 -2.808792,3.26257 -3.913584,5.107737 -1.614852,2.797143 -0.02801,0.02164 -1.47321,2.62328 -0.435359,0.78373 -0.872821,1.650878 -1.465771,2.336281 -0.07509,0.0868 -0.170802,0.153366 -0.256204,0.23005 -1.111906,0.741273 -0.06359,2.313747 1.048319,1.572474 z" />
    <path
       style="fill:#53536c;stroke:none;stroke-width:0.264999"
       id="path1195"
       d="m 97.766525,24.379464 c 1.13715,0.103747 2.301295,0.467378 3.225635,1.157834 0.18353,0.137098 0.33939,0.307792 0.50909,0.461688 0.071,0.147399 0.17047,0.284213 0.213,0.442196 0.2091,0.77673 -0.35082,1.918402 -0.73459,2.567054 -0.3535,0.473308 -0.17154,0.247801 -0.54407,0.67799 -0.867906,1.016145 0.56914,2.243558 1.43705,1.227412 v 0 c 0.50614,-0.598672 0.25541,-0.278444 0.74642,-0.965189 0.11854,-0.211235 0.25099,-0.415253 0.35563,-0.633711 0.56154,-1.172343 0.90371,-2.598592 0.35854,-3.848525 -0.14259,-0.326927 -0.39374,-0.594828 -0.59062,-0.892242 -0.25638,-0.217272 -0.49535,-0.456949 -0.76914,-0.651816 -1.22145,-0.869315 -2.723418,-1.330641 -4.206945,-1.432572 -1.336347,0 -1.336347,1.889881 0,1.889881 z" />
    <path
       style="fill:#53536c;stroke:none;stroke-width:0.264999"
       id="path1197"
       d="m 78.345963,52.53869 c 2.258306,-0.03273 4.516268,-0.100483 6.774762,-0.13708 2.608911,0.0021 5.214009,-0.04633 7.808428,-0.333188 0.819949,-0.100689 1.630138,-0.26407 2.445663,-0.392498 0.475766,-0.07493 0.321937,-0.0791 0.616564,-0.04744 1.335921,0.03375 1.383662,-1.855523 0.04774,-1.889279 v 0 c -1.120635,0.0021 -2.20712,0.334915 -3.318621,0.45089 -2.535031,0.283006 -5.081188,0.321046 -7.630406,0.321882 -2.248283,0.03645 -4.496054,0.10355 -6.744131,0.136832 -1.336347,0 -1.336347,1.889881 10e-7,1.889881 z" />
    <path
       style="fill:#53536c;stroke:none;stroke-width:0.264999"
       id="path1199"
       d="m 93.805493,47.401934 c 0.248026,0.183976 0.534471,0.314389 0.776454,0.506611 0.656402,0.52142 1.246124,1.229879 1.662906,1.954007 0.147611,0.256463 0.25127,0.535828 0.376905,0.803745 0.222072,0.708864 0.573846,1.759985 0.161321,2.48003 -0.06963,0.121526 -0.202988,0.162475 -0.318473,0.215032 -1.049695,0.827027 0.119896,2.311514 1.169588,1.48449 v 0 c 0.505923,-0.448292 0.690991,-0.514676 0.964951,-1.176496 0.512395,-1.237824 0.14946,-2.633676 -0.276868,-3.827608 -0.175366,-0.352857 -0.324567,-0.719974 -0.526098,-1.058564 -0.744362,-1.250593 -1.804037,-2.286635 -3.053042,-3.022124 -1.160275,-0.663014 -2.097919,0.977863 -0.937644,1.640877 z" />
    <path
       style="fill:#53536c;stroke:none;stroke-width:0.264999"
       id="path1201"
       d="m 75.109582,64.590207 c 1.253284,1.943933 2.710167,3.742145 4.188317,5.516845 1.406906,1.619594 2.871269,3.204046 4.509426,4.595202 1.111306,0.943739 1.458627,1.150847 2.64863,1.994635 2.207649,1.346631 4.427869,2.757877 6.871939,3.646051 0.412011,0.149725 0.835585,0.26548 1.253381,0.398222 0.93059,0.279133 1.886884,0.438793 2.842847,0.596656 0.229267,0.03786 0.894861,0.115711 0.672563,0.183399 1.090705,0.772133 2.182665,-0.770358 1.091959,-1.542489 v 0 c -0.143089,-0.0859 -0.277132,-0.189087 -0.42927,-0.257704 -0.337735,-0.152326 -0.677217,-0.190291 -1.038582,-0.249656 -0.864307,-0.141983 -1.729425,-0.282845 -2.571462,-0.532693 -0.370028,-0.115544 -0.745268,-0.215564 -1.110088,-0.346631 -2.31094,-0.830228 -4.401513,-2.177105 -6.491597,-3.437837 -1.096733,-0.774462 -1.450287,-0.987766 -2.473016,-1.853949 -1.572157,-1.331513 -2.975208,-2.851274 -4.32477,-4.402941 -1.416638,-1.69971 -2.813109,-3.42115 -4.019717,-5.279446 -0.687544,-1.14591 -2.308103,-0.173575 -1.62056,0.972336 z" />
    <path
       style="fill:#53536c;stroke:none;stroke-width:0.264999"
       id="path1203"
       d="m 96.93604,76.368441 c 0.877417,0.765061 1.623031,1.621525 2.125025,2.682219 0.13711,0.2897 0.243602,0.592925 0.365403,0.889388 0.26027,0.783924 0.569227,1.612818 0.493757,2.45822 -0.05252,0.588309 -0.355282,1.096812 -0.667054,1.576555 -0.114932,0.133564 -0.229865,0.267128 -0.344797,0.400695 -0.852966,1.028724 0.601874,2.234999 1.454836,1.206273 v 0 c 0.16735,-0.206886 0.3347,-0.413774 0.50205,-0.62066 0.39239,-0.666406 0.57389,-0.871855 0.77379,-1.640022 0.37163,-1.428131 0.0274,-2.76165 -0.46877,-4.109588 -0.15191,-0.358696 -0.28474,-0.726088 -0.45573,-1.076087 -0.5662,-1.158936 -1.362888,-2.163739 -2.343606,-2.996912 -0.869682,-1.014632 -2.304587,0.215287 -1.434904,1.229919 z" />
  </g>
</svg>
